<svg width="70" height="70" viewBox="0 0 70 70" fill="none" xmlns="http://www.w3.org/2000/svg">
<path d="M35 70C54.33 70 70 54.33 70 35C70 15.67 54.33 0 35 0C15.67 0 0 15.67 0 35C0 54.33 15.67 70 35 70Z" fill="#FCE181"/>
<path fill-rule="evenodd" clip-rule="evenodd" d="M7.11819 25.4048L5.54982 33.9877L4 34.2619L4.91716 37.8403L5.66086 38.0706C5.8955 38.1432 6.10811 38.2651 6.28157 38.4262C6.46946 38.6008 6.60547 38.8159 6.67679 39.0515L8.21889 44.1452L8.92142 46.2337C9.06402 46.6572 9.26476 47.0628 9.51896 47.4408C9.87236 47.9661 10.3246 48.4308 10.8546 48.8139L10.9891 48.911C11.4636 49.2538 11.9867 49.5371 12.5444 49.7529L13.0272 49.9398C13.6114 50.1659 14.2168 50.344 14.8359 50.4719L15.3452 50.5769C15.4858 50.606 15.6265 50.6334 15.7683 50.6576C16.2285 50.7362 17.3403 50.9161 18.1243 50.9614C18.9107 51.0068 19.3564 51.0187 20.142 50.9614C20.883 50.9072 21.4713 50.8045 22.1602 50.6841H22.1604C22.2791 50.6633 22.4008 50.6421 22.5266 50.6206C23.2449 50.4972 24.1776 50.2798 24.1776 50.2798C24.5344 50.1692 24.8046 50.071 25.1067 49.9612L25.1069 49.961H25.1071C25.2707 49.9015 25.4437 49.8387 25.645 49.7684C25.645 49.7684 26.4597 49.3995 26.929 49.0868C27.6136 48.6307 27.9433 48.263 28.4509 47.697L28.5798 47.5532C29.0448 47.0365 29.2946 46.6739 29.6374 46.1765L29.638 46.1757C29.7085 46.0734 29.7829 45.9655 29.8639 45.8492C30.318 45.1978 30.9645 44.1452 30.9645 44.1452L32.9275 39.89C33.0836 39.5518 33.334 39.2567 33.654 39.0337L33.6922 39.007C33.8297 38.9112 33.9806 38.8326 34.141 38.773C34.5766 38.611 35.0619 38.5979 35.5074 38.7358L35.5814 38.7587C35.8038 38.8276 36.0129 38.9295 36.1995 39.0594C36.4948 39.2652 36.7281 39.5371 36.8754 39.848L38.6686 43.634L39.0456 44.2564C39.8933 45.6565 40.8718 46.9876 41.9705 48.2348L43.071 49.0868L43.7632 49.4085C44.2793 49.6482 44.8138 49.8538 45.3624 50.0236C45.913 50.1941 46.4763 50.3282 47.0481 50.4247L48.2071 50.6206L49.4762 50.7777C50.4617 50.8998 51.4684 50.9275 52.4604 50.8617C53.1656 50.8149 53.8728 50.7195 54.5624 50.5771L55.6304 50.3566C56.4238 50.1929 57.1822 49.9121 57.8759 49.5254C58.3985 49.2342 58.8795 48.8855 59.3084 48.4871L59.3351 48.4623C59.9823 47.8611 60.5062 47.1596 60.8824 46.3909L60.9509 46.2511C61.1371 45.8702 61.2902 45.4765 61.4084 45.0737L62.3314 41.93L62.973 39.2478C63.0336 38.9943 63.1564 38.7567 63.3322 38.5525C63.6317 38.2048 64.0668 37.9752 64.5473 37.9114L65.0828 37.8403L66 34.2619L64.2939 33.9571L63.0649 25.6152L62.7921 24.0515C62.6808 23.4133 62.4985 22.787 62.2479 22.1823L62.1112 21.8522C61.8676 21.2646 61.5378 20.7096 61.1304 20.2027L60.8605 19.8668C60.6677 19.6269 60.4432 19.4097 60.1917 19.2201L59.9594 19.0448C59.7809 18.9102 59.5794 18.8031 59.3628 18.7277L58.247 18.3393C57.975 18.2446 57.6672 18.3335 57.5049 18.5537C57.3284 18.7934 57.3772 19.1157 57.6186 19.3029L58.2223 19.7712L59.2467 20.6984C59.444 20.8769 59.6246 21.07 59.7869 21.2756C60.1112 21.6866 60.3587 22.1435 60.5193 22.628L60.7171 23.2245L61.1573 25.2167L61.7442 28.2715L62.3313 31.8576L62.4883 33.6344L61.2308 33.4099L55.9112 33.0691H53.7101H50.9585H49.3077L46.1893 33.4099C44.1518 33.6465 43.4404 33.801 42.5821 33.9873C42.204 34.0694 41.7975 34.1577 41.2366 34.2619L38.1183 34.9435L36.6509 35.2843L36.4706 35.3052C35.6164 35.4044 34.7515 35.3974 33.8994 35.2843L31.6982 34.9435L28.5798 34.2619L25.0947 33.5803L21.7929 33.2395L18.1243 33.0691H15.7396L12.4379 33.2395L7.85213 33.5803L7.82829 33.5844L8.03537 31.6952L8.76918 28.0816L9.50285 25.0033L10.0531 22.9958L10.2699 22.4689C10.4903 21.9325 10.8182 21.4381 11.2368 21.0104C11.4257 20.8176 11.6319 20.6393 11.8535 20.4776L13.1715 19.5159L13.8675 19.0807C14.1832 18.8832 14.2442 18.4817 13.9994 18.2137C13.8313 18.0297 13.5582 17.9559 13.307 18.0263L11.7654 18.4589C11.4815 18.5387 11.2117 18.6554 10.9645 18.8057L10.7402 18.942C10.4057 19.1454 10.1 19.3854 9.82965 19.6566L9.57683 19.9103C9.04143 20.4474 8.59751 21.0545 8.25981 21.7114L8.16116 21.9035C7.83394 22.5401 7.59311 23.2106 7.44389 23.9001L7.11819 25.4048ZM12.1214 35.1817L12.3721 35.0943C12.6599 34.9941 12.9571 34.9179 13.26 34.8667L14.8223 34.6029L17.5739 34.4325H19.775L22.343 34.6029L25.0946 35.1141L26.3998 35.4172C26.9944 35.5554 27.5662 35.7649 28.1001 36.0404L28.6038 36.3004C28.8313 36.4178 29.0395 36.5636 29.2224 36.7335C29.5236 37.0134 29.7498 37.3527 29.8835 37.7251L29.8986 37.7673C29.997 38.0417 30.0472 38.3283 30.0472 38.6168V38.8316C30.0472 39.0792 30.0225 39.3262 29.9733 39.5697L29.4969 41.9301L28.7632 43.9751L28.4892 44.484C28.1834 45.0521 27.8174 45.5917 27.396 46.0949L27.1456 46.394C26.8795 46.7118 26.579 47.0044 26.2486 47.2675C25.7271 47.6828 25.1365 48.02 24.499 48.2668L24.2216 48.3741C23.5832 48.6213 22.9136 48.7958 22.2281 48.8939L20.8756 49.0871C19.5331 49.2004 18.1822 49.2052 16.8387 49.1013L16.6567 49.0871L15.5919 48.9073C14.9599 48.8006 14.3481 48.6112 13.7756 48.3453L13.7385 48.3281C13.1201 48.0407 12.5568 47.6641 12.0709 47.2127C11.5836 46.6468 11.1746 46.0285 10.8533 45.3718L10.8272 45.3183C10.5564 44.765 10.346 44.1886 10.1993 43.5978L9.86975 42.2711L9.62409 40.9021C9.54335 40.4522 9.50285 39.9972 9.50285 39.5413V39.1557C9.50285 38.7349 9.55851 38.3155 9.66845 37.9067L9.72894 37.6821C9.82221 37.3351 9.97074 37.0026 10.1696 36.6946L10.1814 36.6763C10.3398 36.4309 10.5307 36.2041 10.7495 36.0009C11.1368 35.6411 11.6046 35.3618 12.1214 35.1817ZM57.8843 35.0669L58.5291 35.2618C58.978 35.3975 59.3831 35.6321 59.7082 35.9447C59.8558 36.0865 59.9853 36.2429 60.0946 36.4109L60.1639 36.5176C60.3802 36.8504 60.5381 37.2118 60.6318 37.589L60.7085 37.8977C60.8117 38.3126 60.8638 38.7367 60.8638 39.162V39.2198C60.8638 39.5493 60.8351 39.8783 60.7781 40.2036L60.4903 41.8459L60.1075 43.4175C59.9894 43.902 59.8322 44.3779 59.6372 44.8415L59.5386 45.0755C59.322 45.5899 59.0458 46.0818 58.7145 46.5429L58.471 46.8814C58.324 47.086 58.1548 47.2769 57.9662 47.451C57.6595 47.7342 57.3043 47.9703 56.9147 48.1502L56.5133 48.3354C55.9315 48.604 55.3101 48.7951 54.6685 48.9028L53.5821 49.0851L53.3968 49.0994C52.0293 49.2046 50.6545 49.1998 49.2878 49.0851L47.9481 48.8949C47.2263 48.7923 46.5224 48.6041 45.8544 48.3349L45.7067 48.2755C45.0536 48.0123 44.4467 47.6629 43.9057 47.2386C43.5943 46.9945 43.3062 46.7267 43.0446 46.4382L42.8338 46.2058C42.284 45.5995 41.8134 44.937 41.4315 44.2319L41.2594 43.9143L40.5126 41.8459L40.0584 39.8411C39.988 39.5305 39.9526 39.2143 39.9526 38.8972V38.5476C39.9526 38.2212 40.0166 37.8973 40.142 37.5915C40.2594 37.305 40.4287 37.0386 40.643 36.803L40.6787 36.7638C40.9392 36.4773 41.2552 36.2367 41.6113 36.0542L42.0501 35.8291C42.5167 35.5898 43.0162 35.4079 43.5352 35.288L44.9936 34.9515L47.2898 34.6028L50.4081 34.4344L52.6092 34.4343L55.3608 34.6028L57.1074 34.8871C57.3708 34.9299 57.6304 34.99 57.8843 35.0669Z" fill="black"/>
</svg>
