<svg width="52" height="54" viewBox="0 0 52 54" fill="none" xmlns="http://www.w3.org/2000/svg">
<g filter="url(#filter0_d)">
<path d="M50 24C50 10.7438 39.2562 0 26 0C12.7438 0 2 10.7438 2 24C2 35.9813 10.775 45.9094 22.25 47.7094V30.9375H16.1562V24H22.25V18.7125C22.25 12.6984 25.8313 9.375 31.3156 9.375C33.9406 9.375 36.6875 9.84375 36.6875 9.84375V15.75H33.6594C30.6781 15.75 29.75 17.6016 29.75 19.5V24H36.4062L35.3422 30.9375H29.75V47.7094C41.225 45.9094 50 35.9813 50 24Z" fill="#016670"/>
</g>
<defs>
<filter id="filter0_d" x="0" y="0" width="52" height="54" filterUnits="userSpaceOnUse" color-interpolation-filters="sRGB">
<feFlood flood-opacity="0" result="BackgroundImageFix"/>
<feColorMatrix in="SourceAlpha" type="matrix" values="0 0 0 0 0 0 0 0 0 0 0 0 0 0 0 0 0 0 127 0"/>
<feOffset dy="4"/>
<feGaussianBlur stdDeviation="1"/>
<feColorMatrix type="matrix" values="0 0 0 0 0 0 0 0 0 0 0 0 0 0 0 0 0 0 0.15 0"/>
<feBlend mode="normal" in2="BackgroundImageFix" result="effect1_dropShadow"/>
<feBlend mode="normal" in="SourceGraphic" in2="effect1_dropShadow" result="shape"/>
</filter>
</defs>
</svg>
