<svg width="52" height="54" viewBox="0 0 52 54" fill="none" xmlns="http://www.w3.org/2000/svg">
<g filter="url(#filter0_d)">
<path d="M26.0432 0.179932C12.8147 0.179932 2.08765 11.0878 2.08765 24.5445C2.08765 35.3096 8.95165 44.4426 18.4699 47.6643C19.6671 47.8899 20.1067 47.1358 20.1067 46.4922C20.1067 45.9112 20.0845 43.9919 20.0742 41.956C13.4097 43.4299 12.0034 39.0812 12.0034 39.0812C10.9137 36.265 9.34358 35.5161 9.34358 35.5161C7.17009 34.0039 9.50742 34.035 9.50742 34.035C11.913 34.2065 13.1796 36.5458 13.1796 36.5458C15.3162 40.2707 18.7837 39.1938 20.1507 38.5712C20.3657 36.9969 20.9866 35.9212 21.6716 35.3132C16.3508 34.6971 10.7574 32.6079 10.7574 23.2719C10.7574 20.6118 11.6932 18.4383 13.2256 16.732C12.9769 16.1179 12.1569 13.6402 13.4577 10.2841C13.4577 10.2841 15.4693 9.62928 20.0472 12.7816C21.9581 12.2418 24.0074 11.971 26.0432 11.9618C28.0791 11.971 30.13 12.2418 32.0444 12.7816C36.6167 9.62928 38.6256 10.2841 38.6256 10.2841C39.9295 13.6402 39.1091 16.1179 38.8604 16.732C40.3964 18.4383 41.3259 20.6118 41.3259 23.2719C41.3259 32.6301 35.7218 34.6906 30.3874 35.2938C31.2467 36.0499 32.0123 37.5327 32.0123 39.8059C32.0123 43.0655 31.9845 45.6893 31.9845 46.4922C31.9845 47.1406 32.4157 47.9003 33.63 47.6611C43.1431 44.4357 49.9984 35.3059 49.9984 24.5445C49.9984 11.0878 39.273 0.179932 26.0432 0.179932" fill="#016670"/>
<path d="M11.1608 35.1623C11.1081 35.2838 10.9208 35.3197 10.7503 35.2366C10.5765 35.1571 10.4789 34.9921 10.5353 34.8706C10.5868 34.746 10.7745 34.7117 10.9478 34.7944C11.122 34.8743 11.2211 35.0409 11.1608 35.1623" fill="#016670"/>
<path d="M12.1312 36.263C12.0169 36.3707 11.7936 36.3207 11.642 36.1504C11.4854 35.9806 11.456 35.7534 11.5718 35.6441C11.6896 35.5363 11.9062 35.5868 12.0633 35.7566C12.22 35.9285 12.2506 36.1541 12.1312 36.263" fill="#016670"/>
<path d="M13.0757 37.6662C12.9289 37.7699 12.6889 37.6726 12.5405 37.456C12.3938 37.2393 12.3938 36.9795 12.5437 36.8754C12.6925 36.7713 12.9289 36.8649 13.0792 37.0799C13.2256 37.2998 13.2256 37.5601 13.0757 37.6662" fill="#016670"/>
<path d="M14.3697 39.0219C14.2384 39.1692 13.9587 39.1297 13.754 38.9287C13.5446 38.7322 13.4863 38.4534 13.618 38.3062C13.7509 38.1585 14.0321 38.2001 14.2384 38.3994C14.4463 38.5955 14.5097 38.8763 14.3697 39.0219" fill="#016670"/>
<path d="M16.1548 39.809C16.0969 39.9999 15.8276 40.0866 15.5562 40.0055C15.2853 39.922 15.108 39.6985 15.1627 39.5056C15.219 39.3136 15.4896 39.2232 15.7629 39.3099C16.0334 39.393 16.2112 39.6149 16.1548 39.809" fill="#016670"/>
<path d="M18.1153 39.9552C18.122 40.1561 17.892 40.3228 17.6071 40.326C17.3207 40.3329 17.089 40.1703 17.0859 39.9726C17.0859 39.7696 17.3108 39.6046 17.5972 39.5998C17.882 39.5941 18.1153 39.7555 18.1153 39.9552" fill="#016670"/>
<path d="M19.9397 39.6392C19.9738 39.8353 19.7759 40.0366 19.493 40.0899C19.2149 40.1419 18.9575 40.0209 18.9222 39.8264C18.8877 39.6255 19.0892 39.4241 19.3669 39.3721C19.6501 39.3221 19.9036 39.4399 19.9397 39.6392" fill="#016670"/>
</g>
<defs>
<filter id="filter0_d" x="0" y="0" width="52" height="54" filterUnits="userSpaceOnUse" color-interpolation-filters="sRGB">
<feFlood flood-opacity="0" result="BackgroundImageFix"/>
<feColorMatrix in="SourceAlpha" type="matrix" values="0 0 0 0 0 0 0 0 0 0 0 0 0 0 0 0 0 0 127 0"/>
<feOffset dy="4"/>
<feGaussianBlur stdDeviation="1"/>
<feColorMatrix type="matrix" values="0 0 0 0 0 0 0 0 0 0 0 0 0 0 0 0 0 0 0.15 0"/>
<feBlend mode="normal" in2="BackgroundImageFix" result="effect1_dropShadow"/>
<feBlend mode="normal" in="SourceGraphic" in2="effect1_dropShadow" result="shape"/>
</filter>
</defs>
</svg>
