<svg width="52" height="54" viewBox="0 0 52 54" fill="none" xmlns="http://www.w3.org/2000/svg">
<g filter="url(#filter0_d)">
<path fill-rule="evenodd" clip-rule="evenodd" d="M26 0C12.7452 0 2 10.7452 2 24C2 37.2548 12.7452 48 26 48C39.2548 48 50 37.2548 50 24C50 10.7452 39.2548 0 26 0ZM20.7233 11.2773C22.0886 11.2152 22.5249 11.2 26.0012 11.2H25.9972C29.4746 11.2 29.9092 11.2152 31.2746 11.2773C32.6373 11.3397 33.5679 11.5555 34.384 11.872C35.2266 12.1987 35.9386 12.636 36.6506 13.348C37.3627 14.0595 37.8 14.7736 38.128 15.6155C38.4427 16.4294 38.6587 17.3595 38.7227 18.7222C38.784 20.0876 38.8 20.5238 38.8 24.0001C38.8 27.4764 38.784 27.9116 38.7227 29.277C38.6587 30.6391 38.4427 31.5695 38.128 32.3837C37.8 33.2253 37.3627 33.9394 36.6506 34.6509C35.9394 35.3629 35.2264 35.8013 34.3848 36.1283C33.5703 36.4448 32.6391 36.6605 31.2765 36.7229C29.9111 36.7851 29.4762 36.8003 25.9996 36.8003C22.5236 36.8003 22.0876 36.7851 20.7222 36.7229C19.3598 36.6605 18.4294 36.4448 17.615 36.1283C16.7736 35.8013 16.0595 35.3629 15.3483 34.6509C14.6365 33.9394 14.1992 33.2253 13.872 32.3834C13.5557 31.5695 13.34 30.6394 13.2773 29.2767C13.2155 27.9114 13.2 27.4764 13.2 24.0001C13.2 20.5238 13.216 20.0873 13.2771 18.7219C13.3384 17.3598 13.5544 16.4294 13.8717 15.6152C14.1997 14.7736 14.6371 14.0595 15.3491 13.348C16.0606 12.6363 16.7747 12.1989 17.6166 11.872C18.4305 11.5555 19.3606 11.3397 20.7233 11.2773Z" fill="#016670"/>
<path fill-rule="evenodd" clip-rule="evenodd" d="M24.8529 13.5066C25.0759 13.5063 25.3157 13.5064 25.5746 13.5065L26.0012 13.5066C29.4188 13.5066 29.8239 13.5189 31.1735 13.5802C32.4215 13.6373 33.0989 13.8458 33.5501 14.021C34.1474 14.253 34.5733 14.5304 35.021 14.9784C35.469 15.4264 35.7464 15.853 35.9789 16.4504C36.1541 16.9011 36.3629 17.5784 36.4197 18.8264C36.481 20.1758 36.4944 20.5811 36.4944 23.9971C36.4944 27.4132 36.481 27.8185 36.4197 29.1678C36.3626 30.4159 36.1541 31.0932 35.9789 31.5439C35.7469 32.1412 35.469 32.5665 35.021 33.0143C34.573 33.4623 34.1477 33.7396 33.5501 33.9716C33.0994 34.1476 32.4215 34.3556 31.1735 34.4127C29.8242 34.474 29.4188 34.4874 26.0012 34.4874C22.5833 34.4874 22.1782 34.474 20.8289 34.4127C19.5809 34.3551 18.9035 34.1466 18.452 33.9714C17.8547 33.7394 17.428 33.462 16.98 33.014C16.532 32.566 16.2547 32.1404 16.0222 31.5428C15.847 31.0921 15.6382 30.4148 15.5814 29.1668C15.52 27.8174 15.5078 27.4121 15.5078 23.9939C15.5078 20.5758 15.52 20.1726 15.5814 18.8232C15.6384 17.5752 15.847 16.8979 16.0222 16.4466C16.2542 15.8493 16.532 15.4226 16.98 14.9746C17.428 14.5266 17.8547 14.2493 18.452 14.0168C18.9033 13.8408 19.5809 13.6328 20.8289 13.5754C22.0097 13.5221 22.4673 13.5061 24.8529 13.5034V13.5066ZM32.8338 15.632C31.9858 15.632 31.2978 16.3192 31.2978 17.1675C31.2978 18.0155 31.9858 18.7035 32.8338 18.7035C33.6818 18.7035 34.3698 18.0155 34.3698 17.1675C34.3698 16.3194 33.6818 15.6314 32.8338 15.6314V15.632ZM19.4278 24.0001C19.4278 20.37 22.3709 17.4268 26.0009 17.4267C29.6311 17.4267 32.5735 20.3699 32.5735 24.0001C32.5735 27.6302 29.6314 30.5721 26.0012 30.5721C22.371 30.5721 19.4278 27.6302 19.4278 24.0001Z" fill="#016670"/>
<path d="M26.0012 19.7334C28.3575 19.7334 30.2679 21.6436 30.2679 24.0001C30.2679 26.3564 28.3575 28.2668 26.0012 28.2668C23.6447 28.2668 21.7345 26.3564 21.7345 24.0001C21.7345 21.6436 23.6447 19.7334 26.0012 19.7334V19.7334Z" fill="#016670"/>
</g>
<defs>
<filter id="filter0_d" x="0" y="0" width="52" height="54" filterUnits="userSpaceOnUse" color-interpolation-filters="sRGB">
<feFlood flood-opacity="0" result="BackgroundImageFix"/>
<feColorMatrix in="SourceAlpha" type="matrix" values="0 0 0 0 0 0 0 0 0 0 0 0 0 0 0 0 0 0 127 0"/>
<feOffset dy="4"/>
<feGaussianBlur stdDeviation="1"/>
<feColorMatrix type="matrix" values="0 0 0 0 0 0 0 0 0 0 0 0 0 0 0 0 0 0 0.15 0"/>
<feBlend mode="normal" in2="BackgroundImageFix" result="effect1_dropShadow"/>
<feBlend mode="normal" in="SourceGraphic" in2="effect1_dropShadow" result="shape"/>
</filter>
</defs>
</svg>
