<svg width="52" height="54" viewBox="0 0 52 54" fill="none" xmlns="http://www.w3.org/2000/svg">
<g filter="url(#filter0_d)">
<path fill-rule="evenodd" clip-rule="evenodd" d="M26 0C12.7452 0 2 10.7452 2 24C2 37.2548 12.7452 48 26 48C39.2548 48 50 37.2548 50 24C50 10.7452 39.2548 0 26 0ZM13.5216 19.8778H18.9605V36.2196H13.5216V19.8778ZM19.3188 14.8227C19.2835 13.2204 18.1377 12 16.277 12C14.4164 12 13.2 13.2204 13.2 14.8227C13.2 16.3918 14.3805 17.6473 16.2064 17.6473H16.2412C18.1377 17.6473 19.3188 16.3918 19.3188 14.8227ZM32.3131 19.4941C35.8922 19.4941 38.5754 21.8303 38.5754 26.8497L38.5752 36.2196H33.1365V27.4767C33.1365 25.2807 32.3494 23.7822 30.3805 23.7822C28.8779 23.7822 27.9829 24.7924 27.5898 25.7682C27.446 26.1178 27.4107 26.605 27.4107 27.0934V36.22H21.9711C21.9711 36.22 22.0428 21.4117 21.9711 19.8783H27.4107V22.1929C28.1325 21.0802 29.4254 19.4941 32.3131 19.4941Z" fill="#016670"/>
</g>
<defs>
<filter id="filter0_d" x="0" y="0" width="52" height="54" filterUnits="userSpaceOnUse" color-interpolation-filters="sRGB">
<feFlood flood-opacity="0" result="BackgroundImageFix"/>
<feColorMatrix in="SourceAlpha" type="matrix" values="0 0 0 0 0 0 0 0 0 0 0 0 0 0 0 0 0 0 127 0"/>
<feOffset dy="4"/>
<feGaussianBlur stdDeviation="1"/>
<feColorMatrix type="matrix" values="0 0 0 0 0 0 0 0 0 0 0 0 0 0 0 0 0 0 0.15 0"/>
<feBlend mode="normal" in2="BackgroundImageFix" result="effect1_dropShadow"/>
<feBlend mode="normal" in="SourceGraphic" in2="effect1_dropShadow" result="shape"/>
</filter>
</defs>
</svg>
