<svg width="220" height="220" viewBox="0 0 220 220" fill="none" xmlns="http://www.w3.org/2000/svg">
<circle cx="110" cy="110" r="110" fill="#FCE181"/>
<path fill-rule="evenodd" clip-rule="evenodd" d="M31.7705 81.3263L26.7055 116.469L23 117.122L25.5795 127.144L27.7553 127.815C28.3607 128.002 28.9164 128.322 29.3815 128.753C29.9324 129.262 30.3378 129.909 30.5561 130.627L34.8659 144.804L36.81 150.559C37.2317 151.807 37.8193 152.993 38.557 154.085C39.528 155.522 40.7456 156.777 42.1536 157.79L42.7226 158.199C44.0143 159.129 45.4198 159.889 46.9046 160.461L48.4349 161.051C50.0483 161.673 51.7103 162.16 53.4039 162.509L54.9137 162.819C55.3061 162.9 55.6982 162.976 56.0931 163.043C57.384 163.262 60.5171 163.768 62.725 163.894C64.937 164.022 66.1906 164.055 68.4 163.894C70.4844 163.743 72.1392 163.455 74.0767 163.118L74.0813 163.117C74.4136 163.059 74.7542 163 75.1068 162.94C77.1273 162.595 79.75 161.985 79.75 161.985C80.7538 161.676 81.5137 161.401 82.3635 161.093L82.3636 161.093C82.824 160.926 83.3109 160.75 83.8773 160.554C83.8773 160.554 86.1687 159.52 87.4886 158.644C89.4141 157.367 90.3415 156.337 91.7688 154.752L91.7689 154.752L91.7689 154.752C91.8862 154.621 92.0069 154.487 92.1318 154.349C93.4395 152.902 94.1422 151.886 95.1062 150.493L95.1076 150.491C95.3059 150.204 95.5153 149.902 95.7432 149.576C97.0205 147.752 98.8386 144.804 98.8386 144.804L104.31 132.994C104.781 131.976 105.515 131.103 106.437 130.464L106.478 130.435C106.887 130.152 107.329 129.921 107.795 129.748C109.013 129.298 110.345 129.261 111.586 129.643L111.885 129.736C112.47 129.916 113.024 130.186 113.528 130.535C114.382 131.128 115.067 131.934 115.514 132.874L120.507 143.372L122.834 147.199C124.375 149.734 126.138 152.126 128.103 154.347L129.793 156.258L132.889 158.644L137.016 160.554L141.659 161.985L147.334 162.94L150.376 163.315C153.5 163.701 156.654 163.79 159.794 163.582L162.295 163.417L168.347 162.173C170.491 161.732 172.556 160.968 174.47 159.905L174.566 159.852C176.011 159.05 177.354 158.077 178.567 156.955C180.429 155.233 181.958 153.181 183.077 150.904L183.153 150.749C183.692 149.651 184.138 148.509 184.484 147.335L187.059 138.599L188.835 131.205C189.024 130.419 189.399 129.689 189.928 129.077C190.739 128.139 191.865 127.532 193.093 127.37L194.798 127.144L197.377 117.122L193.106 116.362L189.123 82.0768L188.339 76.3771C188.036 74.182 187.538 72.0184 186.85 69.9123L186.378 68.4684C185.734 66.497 184.847 64.6136 183.736 62.8618L182.859 61.477C182.359 60.6885 181.765 59.9637 181.091 59.3185L180.325 58.5861C179.865 58.1466 179.332 57.7904 178.751 57.5336L175.875 56.2644C174.958 55.8597 173.884 56.2091 173.38 57.0756C172.929 57.8522 173.061 58.8358 173.702 59.4656L175.503 61.2371L178.33 64.4815C178.921 65.1593 179.456 65.8832 179.931 66.6464C180.826 68.0841 181.499 69.6484 181.927 71.2867L182.519 73.5515L183.757 80.6559L185.408 91.5494L187.059 104.337L187.832 115.424L183.964 114.735L169.002 113.781H162.811H155.073H150.43L141.659 114.735C135.928 115.398 133.928 115.831 131.513 116.353C130.45 116.583 129.307 116.83 127.73 117.122L118.959 119.031L114.832 119.985L114.323 120.044C111.92 120.322 109.492 120.302 107.093 119.985L100.902 119.031L92.1318 117.122L82.3295 115.213L73.0432 114.258L62.725 113.781H56.0182L46.7318 114.258L33.8341 115.213L33.3521 115.298L34.35 103.758L36.4136 90.8718L38.4773 79.8945L40.025 72.7354L40.6937 70.6732C41.2754 68.8796 42.1618 67.1997 43.3142 65.7072C43.8719 64.9848 44.489 64.3103 45.1589 63.6905L48.7955 60.3263L50.8585 58.6904C51.7249 58.0034 51.898 56.7566 51.2516 55.8595C50.7134 55.1128 49.7466 54.8113 48.8794 55.1199L44.8069 56.5689C44.0314 56.8448 43.3043 57.2414 42.6524 57.744L41.9016 58.3228C40.998 59.0194 40.1842 59.8255 39.4791 60.7225L38.6088 61.8295C37.1526 63.6818 35.9645 65.7299 35.0793 67.9135L34.6613 68.9446C33.7685 71.1472 33.1165 73.4398 32.7166 75.7826L31.7705 81.3263ZM45.7142 119.742L46.5831 119.44C47.3687 119.168 48.1758 118.962 48.9958 118.824L53.4386 118.076L61.1773 117.599H67.3682L74.5909 118.076L82.3295 119.508L86.0977 120.38C87.7067 120.752 89.2633 121.322 90.7321 122.077L92.2654 122.865C92.8615 123.171 93.4204 123.564 93.9123 124.019C94.7678 124.81 95.4335 125.808 95.8285 126.904C96.1134 127.695 96.2591 128.529 96.2591 129.369V129.918C96.2591 130.613 96.1896 131.306 96.0516 131.987L95.3082 135.654C94.9108 137.615 94.3709 139.544 93.6928 141.426L93.2705 142.598C92.8559 143.749 92.3557 144.867 91.7742 145.942C90.9828 147.407 90.0444 148.786 88.9733 150.06L88.1546 151.034C87.3687 151.969 86.4906 152.822 85.5336 153.581C84.0938 154.723 82.4892 155.64 80.7746 156.301L79.8162 156.67C78.058 157.348 76.2287 157.824 74.3632 158.09L70.4636 158.645L68.8042 158.784C66.1315 159.009 63.445 159.018 60.7708 158.812L58.5977 158.645L55.4967 158.123C53.7884 157.836 52.126 157.321 50.5537 156.594L50.3151 156.484C48.6246 155.702 47.0673 154.659 45.7 153.395C44.3299 151.81 43.1574 150.033 42.2337 148.153C41.4577 146.574 40.842 144.897 40.4161 143.19L39.5091 139.554L38.8177 135.716C38.5912 134.459 38.4773 133.184 38.4773 131.906V130.866C38.4773 129.663 38.6362 128.465 38.95 127.304L39.0961 126.764C39.3697 125.751 39.7997 124.787 40.3704 123.907C40.8262 123.205 41.3678 122.561 41.9827 121.992L42.0219 121.956C43.0867 120.971 44.3438 120.217 45.7142 119.742ZM173.48 119.053L176.481 119.957C177.669 120.315 178.756 120.949 179.652 121.807C180.087 122.222 180.472 122.687 180.801 123.19L180.946 123.412C181.565 124.362 182.022 125.408 182.296 126.508L182.489 127.278C182.783 128.457 182.932 129.668 182.932 130.884V131.007C182.932 131.93 182.851 132.852 182.691 133.761L181.882 138.363L180.817 142.715C180.477 144.105 180.026 145.466 179.469 146.784L179.238 147.329C178.607 148.823 177.81 150.24 176.861 151.554L176.234 152.423C175.799 153.025 175.304 153.582 174.757 154.085C173.911 154.864 172.948 155.505 171.903 155.985L170.636 156.567C169.038 157.302 167.35 157.821 165.615 158.111L162.452 158.639L160.143 158.816C157.486 159.02 154.816 159.011 152.16 158.789L150.374 158.639L146.506 158.092C144.541 157.814 142.617 157.3 140.775 156.561L140.192 156.327C138.427 155.619 136.771 154.666 135.273 153.496C134.373 152.793 133.534 152.016 132.765 151.171L131.718 150.021C130.507 148.691 129.46 147.22 128.6 145.639C128.064 144.652 127.602 143.626 127.219 142.57L125.694 138.363L124.415 132.746C124.218 131.878 124.118 130.991 124.118 130.1V129.175C124.118 128.229 124.303 127.293 124.663 126.419C124.985 125.636 125.442 124.916 126.013 124.291L126.196 124.09C126.905 123.313 127.749 122.67 128.686 122.192L130.077 121.481C131.351 120.83 132.7 120.339 134.094 120.019L138.296 119.053L144.755 118.077L153.525 117.605L159.716 117.605L167.455 118.077L173.48 119.053Z" fill="black"/>
</svg>
